<svg width="12" height="12" viewBox="0 0 12 12" fill="none" xmlns="http://www.w3.org/2000/svg">
<path d="M7.66594 9.41016C7.66594 10.3252 6.91594 11.0752 6.00094 11.0752C5.54594 11.0752 5.12594 10.8852 4.82594 10.5852C4.52594 10.2852 4.33594 9.86516 4.33594 9.41016" stroke="#1C334D" stroke-miterlimit="10"/>
<path d="M6.00946 1C4.16946 1 2.67946 2.49 2.67946 4.33V5.38C2.67946 5.72 2.53946 6.23 2.36446 6.52L1.72946 7.58C1.33946 8.235 1.60946 8.965 2.32946 9.205C4.71946 10 7.30446 10 9.69446 9.205C10.3695 8.98 10.6595 8.19 10.2945 7.58L9.65946 6.52C9.48446 6.23 9.34446 5.715 9.34446 5.38V4.33C9.33946 2.5 7.83946 1 6.00946 1Z" stroke="#1C334D" stroke-miterlimit="10" stroke-linecap="round"/>
<path d="M6 3.22021V4.88522" stroke="#1C334D" stroke-miterlimit="10" stroke-linecap="round"/>
</svg>
