<svg width="16" height="16" viewBox="0 0 16 16" fill="none" xmlns="http://www.w3.org/2000/svg">
<path d="M7.64042 9.1534C8.67503 9.1534 9.51376 8.31468 9.51376 7.28007C9.51376 6.24546 8.67503 5.40674 7.64042 5.40674C6.60581 5.40674 5.76709 6.24546 5.76709 7.28007C5.76709 8.31468 6.60581 9.1534 7.64042 9.1534Z" stroke="#0294E2" stroke-linecap="round" stroke-linejoin="round"/>
<path d="M11.0997 13.4665C11.0997 11.9132 9.55302 10.6465 7.63969 10.6465C5.72635 10.6465 4.17969 11.9065 4.17969 13.4665" stroke="#0294E2" stroke-linecap="round" stroke-linejoin="round"/>
<path d="M14.0002 8.33333C14.0002 11.8333 11.1668 14.6667 7.66683 14.6667C4.16683 14.6667 1.3335 11.8333 1.3335 8.33333C1.3335 4.83333 4.16683 2 7.66683 2C8.54016 2 9.3735 2.17333 10.1335 2.49333C10.0468 2.75999 10.0002 3.04 10.0002 3.33333C10.0002 3.83333 10.1402 4.30667 10.3868 4.70667C10.5202 4.93333 10.6935 5.13998 10.8935 5.31331C11.3602 5.73998 11.9802 6 12.6668 6C12.9602 6 13.2402 5.95332 13.5002 5.85999C13.8202 6.61999 14.0002 7.46 14.0002 8.33333Z" stroke="#0294E2" stroke-linecap="round" stroke-linejoin="round"/>
<path d="M15.3333 3.33317C15.3333 3.5465 15.3067 3.75317 15.2533 3.95317C15.1933 4.21983 15.0867 4.47984 14.9467 4.7065C14.6267 5.2465 14.1133 5.66649 13.5 5.85982C13.24 5.95316 12.96 5.99984 12.6667 5.99984C11.98 5.99984 11.36 5.73982 10.8933 5.31315C10.6933 5.13982 10.52 4.93317 10.3867 4.7065C10.14 4.3065 10 3.83317 10 3.33317C10 3.03984 10.0467 2.75983 10.1333 2.49316C10.26 2.1065 10.4733 1.75985 10.7533 1.47319C11.24 0.973185 11.92 0.666504 12.6667 0.666504C13.4533 0.666504 14.1667 1.00652 14.6467 1.55318C15.0733 2.02652 15.3333 2.65317 15.3333 3.33317Z" stroke="#0294E2" stroke-miterlimit="10" stroke-linecap="round" stroke-linejoin="round"/>
<path d="M13.66 3.31982H11.6733" stroke="#0294E2" stroke-miterlimit="10" stroke-linecap="round" stroke-linejoin="round"/>
<path d="M12.6665 2.34668V4.34001" stroke="#0294E2" stroke-miterlimit="10" stroke-linecap="round" stroke-linejoin="round"/>
</svg>
